<svg xmlns="http://www.w3.org/2000/svg" xmlns:xlink="http://www.w3.org/1999/xlink" width="388" height="280" viewBox="0 0 388 280"><defs><style>.a{fill:none;stroke:#707070;}.b{clip-path:url(#a);}.c{fill:#f1cb30;}.d{fill:#71c7e5;}</style><clipPath id="a"><rect class="a" width="388" height="280" transform="translate(1492 2067)"/></clipPath></defs><g class="b" transform="translate(-1492 -2067)"><g transform="translate(1400.335 2008.208)"><path class="c" d="M230.3,31.836C202.014,77.83,162.153,144.2,126.248,202.36c-1.682,2.671-2.473,7.319-8.309,8.7h-3.561c-5.836-1.385-6.726-6.034-8.309-8.7C70.165,144.2,30.3,77.83,2.014,31.836-3.327,23.132-.063-9.41,36.93,2.657l79.228,37.191L195.387,2.657C232.38-9.41,235.644,23.033,230.3,31.836" transform="matrix(-0.839, 0.545, -0.545, -0.839, 309.792, 177.014)"/><path class="d" d="M201.675,156.949C176.9,116.672,142,58.553,110.554,7.622c-1.473-2.339-2.165-6.41-7.276-7.622H100.16c-5.11,1.213-5.89,5.284-7.276,7.622-31.442,50.93-66.348,109.05-91.12,149.327C-2.913,164.571-.055,193.068,32.34,182.5l69.38-32.568L171.1,182.5c32.395,10.567,35.253-17.843,30.576-25.552" transform="translate(349.939 91.451) rotate(22)"/></g></g></svg>