<svg xmlns="http://www.w3.org/2000/svg" width="259.12" height="93.987" viewBox="0 0 259.12 93.987">
  <g id="Group_321" data-name="Group 321" transform="translate(335.572 283.569) rotate(180)">
    <g id="Group_319" data-name="Group 319" transform="translate(82.047 192.035)">
      <path id="Path_831" data-name="Path 831" d="M215.818,281.919l-1.62-.012.037-3.086,1.589.012c1.809,0,3.621-.037,5.433-.1l.113,3.083Q218.6,281.916,215.818,281.919Zm-8.786-.263q-3.58-.215-7.151-.608l.339-3.068q3.488.385,7,.6Zm21.5-.281-.263-3.074q3.5-.3,6.986-.758l.4,3.059Q232.1,281.07,228.53,281.375Zm-35.757-1.293q-3.548-.573-7.053-1.326l.645-3.016q3.429.733,6.9,1.3Zm49.967-.587-.547-3.038q3.456-.623,6.888-1.4l.685,3.01Q246.268,278.858,242.74,279.5Zm-63.994-2.411q-3.47-.926-6.885-2.02l.941-2.937q3.342,1.068,6.738,1.974Zm77.969-.773-.822-2.973q3.388-.94,6.732-2.026l.953,2.934Q260.173,275.355,256.715,276.311Zm-91.632-3.6q-3.355-1.256-6.656-2.668l1.219-2.839q3.227,1.389,6.518,2.619Zm105.258-.846-1.088-2.888q3.287-1.242,6.518-2.628l1.216,2.836Q273.7,270.6,270.341,271.868Zm-118.435-4.8q-3.227-1.568-6.375-3.282l1.476-2.711q3.085,1.682,6.246,3.218Zm131.606-.856-1.348-2.775q3.163-1.536,6.252-3.209l1.47,2.711Q286.738,264.645,283.512,266.209Zm-144.2-6q-3.067-1.856-6.048-3.854l1.717-2.564q2.925,1.953,5.929,3.777Zm156.793-.843-1.6-2.64q3.007-1.815,5.928-3.771l1.714,2.564Q299.177,257.516,296.109,259.369Zm-168.7-7.132q-2.883-2.127-5.672-4.382l1.941-2.4q2.737,2.214,5.562,4.3Zm180.617-.843-1.837-2.481q2.824-2.086,5.543-4.312l1.953,2.39Q310.906,249.259,308.024,251.393Zm-191.756-8.178q-2.682-2.384-5.247-4.883l2.151-2.212q2.517,2.452,5.146,4.786Zm202.861-.9-2.069-2.3q2.608-2.347,5.1-4.825l2.176,2.188Q321.794,239.914,319.129,242.32ZM106,233.217q-2.452-2.613-4.779-5.342l2.344-2q2.283,2.672,4.688,5.238Zm223.3-1.015-2.286-2.078q1.247-1.371,2.46-2.781l2.341,2.017Q330.566,230.795,329.293,232.2Zm-232.6-9.883q-2.2-2.833-4.269-5.767l2.527-1.775q2.017,2.874,4.177,5.647Zm-8.251-11.732q-1.925-3.025-3.695-6.145l2.683-1.525q1.737,3.053,3.618,6.02Zm-7.084-12.465q-1.618-3.209-3.071-6.488l2.821-1.25q1.421,3.209,3,6.344Z" transform="translate(-78.283 -190.385)" fill="#71c7e5"/>
    </g>
    <g id="Group_320" data-name="Group 320" transform="translate(76.452 189.582)">
      <path id="Path_832" data-name="Path 832" d="M76.452,207.224l2.939.949,4.661-14.486,14.109,5.708,1.156-2.865-17.185-6.948Z" transform="translate(-76.452 -189.582)" fill="#71c7e5"/>
    </g>
  </g>
</svg>
