<svg xmlns="http://www.w3.org/2000/svg" xmlns:xlink="http://www.w3.org/1999/xlink" width="1920" height="1827" viewBox="0 0 1920 1827">
  <defs>
    <clipPath id="clip-path">
      <rect id="Rectangle_2" data-name="Rectangle 2" width="1920" height="1827" transform="translate(0 111)" fill="#fff"/>
    </clipPath>
  </defs>
  <g id="Mask_Group_1" data-name="Mask Group 1" transform="translate(0 -111)" clip-path="url(#clip-path)">
    <path id="Path_19" data-name="Path 19" d="M1928.527,192.063c-163.363,265.608-393.556,648.884-600.9,984.75-9.713,15.422-14.28,42.269-47.982,50.266H1259.08c-33.7-8-38.842-34.844-47.982-50.266-207.345-335.866-437.539-719.142-600.9-984.75C579.35,141.8,598.2-46.128,811.83,23.558L1269.36,238.33,1726.892,23.558c213.63-69.686,232.48,117.667,201.635,168.5" transform="matrix(-0.839, 0.545, -0.545, -0.839, 1651.996, 438.134)" fill="#f1cb30"/>
    <path id="Path_23" data-name="Path 23" d="M1164.64,906.356C1021.584,673.765,820.006,338.133,638.434,44.017,629.929,30.512,625.929,7,596.417,0H578.41C548.9,7,544.4,30.512,536.393,44.017,354.822,338.133,153.243,673.765,10.187,906.356c-27.011,44.017-10.505,208.582,176.569,147.558L587.412,865.84l400.657,188.074c187.075,61.024,203.581-103.04,176.571-147.558" transform="translate(1377.371 263.135) rotate(22)" fill="#71c7e5"/>
  </g>
</svg>
