<svg xmlns="http://www.w3.org/2000/svg" width="112.287" height="121.308" viewBox="0 0 112.287 121.308">
  <g id="buy-online-shopping-ecommerce-purchase" transform="translate(-13 -10.848)">
    <g id="Group_258" data-name="Group 258" transform="translate(60.284 63.045)">
      <path id="Path_710" data-name="Path 710" d="M61.98,105.315,39.564,82.859a5.591,5.591,0,0,1,.043-7.882l.609-.6a5.591,5.591,0,0,1,7.882.041L58.274,84.576V43.9a5.592,5.592,0,0,1,5.572-5.572h.464A5.59,5.59,0,0,1,69.881,43.9V64.826l21.364,3.532s6.963,1.4,6.963,10.527l-2.035,25.54" transform="translate(-37.96 -38.326)" fill="none" stroke="#211915" stroke-linecap="round" stroke-linejoin="round" stroke-miterlimit="10" stroke-width="3"/>
    </g>
    <g id="Group_259" data-name="Group 259" transform="translate(89.12 29.619)">
      <line id="Line_7" data-name="Line 7" x2="9.209" y2="14.127" fill="none" stroke="#211915" stroke-linecap="round" stroke-linejoin="round" stroke-miterlimit="10" stroke-width="3"/>
      <line id="Line_8" data-name="Line 8" x1="9.213" y2="14.127" transform="translate(9.209)" fill="none" stroke="#211915" stroke-linecap="round" stroke-linejoin="round" stroke-miterlimit="10" stroke-width="3"/>
      <line id="Line_9" data-name="Line 9" y2="14.248" transform="translate(9.209 14.127)" fill="none" stroke="#211915" stroke-linecap="round" stroke-linejoin="round" stroke-miterlimit="10" stroke-width="3"/>
    </g>
    <path id="Path_711" data-name="Path 711" d="M55.905,21.2V40.792a8.658,8.658,0,1,1-17.314,0V21.2" transform="translate(22.924 8.421)" fill="none" stroke="#211915" stroke-linecap="round" stroke-linejoin="round" stroke-miterlimit="10" stroke-width="3"/>
    <g id="Group_260" data-name="Group 260" transform="translate(33.941 29.619)">
      <path id="Path_712" data-name="Path 712" d="M33.6,35.386a6.851,6.851,0,0,1,6.83,6.83v.527a6.851,6.851,0,0,1-6.83,6.83H24.462V21.2H33.6a6.851,6.851,0,0,1,6.83,6.83v.527a6.852,6.852,0,0,1-6.83,6.83H25.438" transform="translate(-24.462 -21.198)" fill="none" stroke="#211915" stroke-linecap="round" stroke-linejoin="round" stroke-miterlimit="10" stroke-width="3"/>
    </g>
    <path id="Path_713" data-name="Path 713" d="M72.19,74.8H30.112A15.66,15.66,0,0,1,14.5,59.185V27.96A15.66,15.66,0,0,1,30.112,12.348h78.062A15.658,15.658,0,0,1,123.787,27.96V59.185A15.658,15.658,0,0,1,108.175,74.8H100.62" fill="none" stroke="#211915" stroke-linejoin="round" stroke-miterlimit="10" stroke-width="3"/>
  </g>
</svg>
