<svg id="Group_367" data-name="Group 367" xmlns="http://www.w3.org/2000/svg" width="137.385" height="131.624" viewBox="0 0 137.385 131.624">
  <path id="Path_837" data-name="Path 837" d="M957.46,7836.8l-.891-.032-.127.024a2.945,2.945,0,0,0-2.137,1.741c-.043.082-.082.161-.127.228-3.865,5.78-7.888,11.893-11.78,17.8-2.846,4.323-5.535,8.407-7.812,11.83a5.381,5.381,0,0,0,.385,5.622c.783,1.073,2.72,2.7,6.884,1.51l.133-.048,13.836-5.887,13.5,6.931c4.069,1.486,6.117.007,6.976-1.007a5.383,5.383,0,0,0,.79-5.58c-2.02-3.57-4.4-7.828-6.919-12.336-3.458-6.187-7.034-12.584-10.475-18.639-.039-.069-.072-.15-.109-.235a2.941,2.941,0,0,0-2.007-1.892Z" transform="translate(-872.225 -7802.528)" fill="#71c7e5"/>
  <path id="Path_838" data-name="Path 838" d="M926.537,7776.309a10.286,10.286,0,0,0-7.968-3.738H838.855a2.958,2.958,0,0,0,0,5.916h79.713a4.337,4.337,0,0,1,3.4,1.586,4.533,4.533,0,0,1,.942,3.749l-11.821,59.109a4.465,4.465,0,0,1-4.356,3.586H840.989l-27.145-81.728a10.516,10.516,0,0,0-9.989-7.007h0c-3.858.133-7.772.132-8.73.066a2.958,2.958,0,0,0-2.724,4.981c.916.915,1.225,1.225,11.556.867a4.551,4.551,0,0,1,4.292,3l27.8,83.709h0l0,.01,5.78,17.189a10.535,10.535,0,0,0,3.709,5.016A10.35,10.35,0,1,0,863,7874.615h33.06a10.351,10.351,0,1,0,9.351-5.915H851.574a4.511,4.511,0,0,1-4.148-3.014l-4.457-13.256h63.768a10.357,10.357,0,0,0,10.147-8.293l11.835-59.173a10.439,10.439,0,0,0-2.182-8.656m-25.222,98.307a6.036,6.036,0,1,1-1.951,4.438,6.013,6.013,0,0,1,1.951-4.437m-51.571-.173a6.039,6.039,0,1,1-2.142,4.611,6.012,6.012,0,0,1,2.142-4.611" transform="translate(-791.529 -7757.781)" fill="#71c7e5"/>
</svg>
