<svg xmlns="http://www.w3.org/2000/svg" width="59.789" height="59.811" viewBox="0 0 59.789 59.811"><defs><style>.a{fill:#71c7e5;}</style></defs><path class="a" d="M292.487,416.157h0a29.575,29.575,0,0,0-43.146,40.463c.439.469.9.929,1.353,1.353a29.531,29.531,0,0,0,20.824,8.678c.224,0,.445.006.666.006a28.454,28.454,0,0,0,11.507-2.444,13.082,13.082,0,0,0,6.635-6.312,7.869,7.869,0,0,0-1.613-8.481,4.5,4.5,0,0,0-.084-6.034c-.084-.093-.173-.179-.245-.245l-4.107-4.1A4.55,4.55,0,0,0,281,437.552,4.643,4.643,0,0,0,277.727,439l-1.837,1.837c-.2-.1-.385-.2-.562-.308a24.689,24.689,0,0,1-5.948-5.4,14.547,14.547,0,0,1-1.559-2.321c.418-.406.818-.818,1.219-1.228.123-.128.251-.251.376-.379l.218-.215a4.43,4.43,0,0,0,.436-6.238,4.307,4.307,0,0,0-.406-.406l-2.037-2.037c-.236-.236-.46-.46-.72-.729-.448-.463-.908-.935-1.38-1.371a4.607,4.607,0,0,0-3.244-1.4,4.667,4.667,0,0,0-3.274,1.416l-2.548,2.551a6.434,6.434,0,0,0-1.921,4.143,14.072,14.072,0,0,0,1.028,5.978,33.182,33.182,0,0,0,5.894,9.849,35.907,35.907,0,0,0,12.06,9.449,19.321,19.321,0,0,0,7.02,2.061h.487a6.747,6.747,0,0,0,4.842-1.936,3.772,3.772,0,0,1,.7,4.036c-1.306,3.1-6.444,6.226-14.984,6.226a25.5,25.5,0,0,1,.015-50.99h.018a25.5,25.5,0,0,1,24.562,32.281,2.008,2.008,0,0,0,.191,1.544,2.031,2.031,0,0,0,3.725-.463A29.574,29.574,0,0,0,292.487,416.157Zm-25.446,11.707a.886.886,0,0,1-.233.212l-1.022,1.022c-.421.427-.83.842-1.267,1.24l-.084-.009-.179.251a2.544,2.544,0,0,0-.648,2.766l.054.137a17.418,17.418,0,0,0,2.557,4.176,28.456,28.456,0,0,0,6.9,6.27c.338.215.678.391,1.013.562a6.417,6.417,0,0,1,.645.349,1.458,1.458,0,0,0,.173.1,2.68,2.68,0,0,0,1.21.3,2.563,2.563,0,0,0,1.846-.822l2.6-2.6a1.079,1.079,0,0,1,.311-.236.671.671,0,0,1,.442.272l4.233,4.194a.491.491,0,0,1,.191.317.5.5,0,0,1-.093.364,1.233,1.233,0,0,1-.2.188c-.266.287-.556.574-.869.866a20.55,20.55,0,0,0-1.509,1.565,2.638,2.638,0,0,1-2.085.845c-.087,0-.173,0-.227,0a15.334,15.334,0,0,1-5.479-1.661,31.963,31.963,0,0,1-10.724-8.415,29.437,29.437,0,0,1-5.222-8.672,10.123,10.123,0,0,1-.789-4.236,2.388,2.388,0,0,1,.741-1.574l2.581-2.566a.862.862,0,0,1,.362-.23.7.7,0,0,1,.475.284c.442.412.875.839,1.317,1.309l2.853,2.847a.408.408,0,0,1,.188.266A.439.439,0,0,1,267.041,427.864Z" transform="translate(-241.372 -406.846)"/></svg>