<svg xmlns="http://www.w3.org/2000/svg" width="49.279" height="42.199" viewBox="0 0 49.279 42.199">
  <g id="Group_6110" data-name="Group 6110" transform="translate(357 19710.507) rotate(-90)">
    <path id="Path_657" data-name="Path 657" d="M406.4,76.421h-.852l-.114-.028a2.912,2.912,0,0,1-2.017-1.761,1.687,1.687,0,0,0-.114-.227c-3.522-5.737-7.214-11.787-10.765-17.638-2.613-4.26-5.084-8.322-7.157-11.7a5.2,5.2,0,0,1,.568-5.425c.8-1.022,2.727-2.5,6.7-1.221l.114.057,13.179,6.192,13.321-6.249c3.976-1.307,5.908.2,6.7,1.221a5.2,5.2,0,0,1,.568,5.425c-2.073,3.38-4.516,7.413-7.129,11.7-3.55,5.851-7.243,11.929-10.793,17.666a1.687,1.687,0,0,0-.114.227,2.912,2.912,0,0,1-2.017,1.761Zm-.6-2.187h.312c.17-.057.256-.2.426-.54.085-.142.142-.312.227-.426,3.55-5.737,7.214-11.787,10.765-17.638,2.585-4.26,5.056-8.322,7.129-11.7A3.222,3.222,0,0,0,424.239,41c-.966-1.221-2.84-.966-4.26-.511l-14.031,6.589-14.031-6.589c-1.42-.454-3.295-.71-4.26.511a3.222,3.222,0,0,0-.426,2.925c2.073,3.408,4.544,7.441,7.157,11.73,3.55,5.851,7.243,11.9,10.765,17.609.085.114.142.284.227.426.17.341.256.483.426.54" transform="translate(19283.445 -384.142)" fill="#fff"/>
    <path id="Path_658" data-name="Path 658" d="M428.414,5.48c-4.857,7.924-11.73,19.342-17.922,29.34-.284.454-.426,1.25-1.42,1.505h-.625c-.994-.227-1.164-1.022-1.42-1.505-6.192-10-13.037-21.415-17.894-29.34-.909-1.505-.369-7.1,6.021-5.027l13.633,6.391L422.421.452c6.362-2.073,6.93,3.522,5.993,5.027" transform="translate(19280.635 -356.997)" fill="#f4ce30"/>
  </g>
</svg>
