<svg xmlns="http://www.w3.org/2000/svg" width="40.98" height="47.848" viewBox="0 0 40.98 47.848"><defs><style>.a{fill:#211915;}.b{fill:#f3d559;}</style></defs><g transform="translate(-1339.639 -4508)"><path class="a" d="M815.03,4602.789h-.838l-.118-.026a2.767,2.767,0,0,1-1.948-1.708c-.038-.079-.071-.154-.111-.219-3.433-5.559-7-11.436-10.456-17.121-2.526-4.157-4.912-8.083-6.935-11.376a5.061,5.061,0,0,1,.553-5.268c.772-.98,2.646-2.438,6.517-1.183l.124.049,12.794,6,12.918-6.049c3.872-1.256,5.745.2,6.517,1.184a5.059,5.059,0,0,1,.552,5.268c-2.018,3.285-4.4,7.2-6.918,11.349-3.458,5.693-7.035,11.579-10.473,17.147-.039.064-.073.14-.111.219a2.767,2.767,0,0,1-1.949,1.708Zm-.573-2.127h.308c.174-.062.246-.181.413-.53a4.554,4.554,0,0,1,.218-.413c3.435-5.563,7.009-11.446,10.465-17.135,2.521-4.15,4.9-8.07,6.924-11.359a3.106,3.106,0,0,0-.411-2.838c-.936-1.189-2.748-.933-4.126-.5l-13.636,6.4-13.636-6.4c-1.38-.438-3.191-.694-4.126.5a3.1,3.1,0,0,0-.412,2.838c2.026,3.3,4.413,7.226,6.94,11.385,3.451,5.681,7.02,11.556,10.448,17.108a4.529,4.529,0,0,1,.219.414c.167.349.239.467.413.53" transform="translate(545.518 -46.94)"/><path class="a" d="M840.768,4491.148c-4.723,7.687-11.386,18.772-17.389,28.5-.275.446-.419,1.224-1.393,1.448h-.6c-.974-.224-1.118-1-1.393-1.448-6-9.724-12.666-20.81-17.389-28.5-.9-1.458-.347-6.886,5.834-4.882l13.246,6.213,13.246-6.213c6.182-2,6.731,3.423,5.834,4.882" transform="translate(538.44 22.173)"/><path class="b" d="M31.868,10.09l.5-3.246H29.251V4.737a1.623,1.623,0,0,1,1.83-1.754H32.5V.219A17.27,17.27,0,0,0,29.984,0c-2.565,0-4.242,1.555-4.242,4.37V6.844H22.89V10.09h2.852v7.848h3.51V10.09Z" transform="translate(1332.349 4516.108)"/></g></svg>