<svg xmlns="http://www.w3.org/2000/svg" xmlns:xlink="http://www.w3.org/1999/xlink" width="1920" height="1135" viewBox="0 0 1920 1135"><defs><style>.a{fill:#fff;}.b{clip-path:url(#a);}.c{fill:#f1cb30;}.d{fill:#71c7e5;}</style><clipPath id="a"><rect class="a" width="1920" height="1135" transform="translate(0 3055)"/></clipPath></defs><g class="b" transform="translate(0 -3055)"><path class="c" d="M1074.953,1271.738h-27.3l-3.641-.91c-41.858-10.009-56.417-40.038-64.606-56.418-.909-2.73-2.731-5.46-3.64-7.28C862.932,1023.316,744.636,829.493,630.89,642.04,547.172,505.545,468,375.419,401.578,267.133c-25.48-40.949-23.659-120.116,18.2-173.8C445.256,60.571,507.135,13.252,634.53,54.2l3.641,1.82,422.224,198.373L1487.168,54.2c127.4-41.859,189.274,6.37,214.753,39.129,41.858,53.688,43.678,132.855,18.2,173.8-66.427,108.286-144.685,237.5-228.4,374.907-113.745,187.453-232.041,382.186-345.787,566-.909,1.82-2.729,4.55-3.64,7.279-8.189,16.38-22.749,46.409-64.608,56.418Zm-19.109-70.067h10.01c5.459-1.82,8.19-6.37,13.649-17.29,2.729-4.55,4.55-10.01,7.278-13.65,113.747-183.813,231.133-377.637,344.878-565.09,82.808-136.5,161.976-266.62,228.4-374.907,8.19-12.74,10.919-61.878-13.649-93.727-30.939-39.129-91-30.939-136.5-16.38L1060.394,331.741,610.87,120.629c-45.5-14.559-105.556-22.749-136.5,16.379-24.568,31.849-21.839,80.987-13.649,93.727,66.428,109.2,145.6,238.412,229.311,375.817C803.785,794,922.079,987.828,1034.915,1170.731c2.731,3.64,4.551,9.1,7.281,13.65,5.459,10.92,8.19,15.469,13.649,17.29" transform="matrix(-0.839, 0.545, -0.545, -0.839, 1464.735, 3577.049)"/><path class="d" d="M1074.953,1271.738h-27.3l-3.641-.91c-41.858-10.009-56.417-40.038-64.606-56.418-.909-2.73-2.731-5.46-3.64-7.28C862.932,1023.316,744.636,829.493,630.89,642.04,547.172,505.545,468,375.419,401.578,267.133c-25.48-40.949-23.659-120.116,18.2-173.8C445.256,60.571,507.135,13.252,634.53,54.2l3.641,1.82,422.224,198.373L1487.168,54.2c127.4-41.859,189.274,6.37,214.753,39.129,41.858,53.688,43.678,132.855,18.2,173.8-66.427,108.286-144.685,237.5-228.4,374.907-113.745,187.453-232.041,382.186-345.787,566-.909,1.82-2.729,4.55-3.64,7.279-8.189,16.38-22.749,46.409-64.608,56.418Zm-19.109-70.067h10.01c5.459-1.82,8.19-6.37,13.649-17.29,2.729-4.55,4.55-10.01,7.278-13.65,113.747-183.813,231.133-377.637,344.878-565.09,82.808-136.5,161.976-266.62,228.4-374.907,8.19-12.74,10.919-61.878-13.649-93.727-30.939-39.129-91-30.939-136.5-16.38L1060.394,331.741,610.87,120.629c-45.5-14.559-105.556-22.749-136.5,16.379-24.568,31.849-21.839,80.987-13.649,93.727,66.428,109.2,145.6,238.412,229.311,375.817C803.785,794,922.079,987.828,1034.915,1170.731c2.731,3.64,4.551,9.1,7.281,13.65,5.459,10.92,8.19,15.469,13.649,17.29" transform="matrix(-0.927, -0.375, 0.375, -0.927, 2360.69, 5158.191)"/></g></svg>