<svg xmlns="http://www.w3.org/2000/svg" width="147.826" height="52.412" viewBox="0 0 147.826 52.412"><defs><style>.a{fill:#211915;}</style></defs><path class="a" d="M.335,18.8h0A2.129,2.129,0,0,1,3.2,17.746,13.457,13.457,0,0,0,8.68,18.979c3.063,0,4.313-1.021,4.313-2.394C12.993,12.394,0,15.264,0,6.972,0,3.169,3.063,0,9.419,0a16.66,16.66,0,0,1,5.81,1.021,2.127,2.127,0,0,1,1.2,2.8A2.149,2.149,0,0,1,13.644,5a11.85,11.85,0,0,0-4.278-.845C6.3,4.155,5.123,5.3,5.123,6.708c0,4.12,12.993,1.285,12.993,9.489,0,3.732-3.1,6.937-9.489,6.937a18,18,0,0,1-7.254-1.5A2.162,2.162,0,0,1,.335,18.8"/><path class="a" d="M22.3,39.832h-.9l-.123-.035a2.926,2.926,0,0,1-2.061-1.781l-.016-.032a.918.918,0,0,0-.123-.229c-3.382-5.463-6.9-11.247-10.295-16.841l-.85-1.4C5.163,14.954,2.7,10.894.537,7.4a5.4,5.4,0,0,1,.581-5.616A4.867,4.867,0,0,1,5.119,0,9.6,9.6,0,0,1,8.055.519l.123.052L21.15,6.655l-1.8,1.639L7.316,2.65a7.488,7.488,0,0,0-2.2-.387,2.651,2.651,0,0,0-2.2.914,3.28,3.28,0,0,0-.44,3.029c1.807,2.923,3.878,6.336,6.07,9.948l1.324,2.182C13.494,24.3,17.34,30.625,21,36.558a2.49,2.49,0,0,1,.222.423l.008.017c.2.372.266.493.457.563h.335c.2-.072.267-.2.44-.563.073-.164.165-.33.229-.44,3.337-5.407,6.805-11.115,10.159-16.636L33.83,18.3l2.36-3.874c1.8-2.962,3.508-5.76,5.016-8.221a3.276,3.276,0,0,0-.44-3.029,2.643,2.643,0,0,0-2.2-.914,7.608,7.608,0,0,0-2.2.387L27.59,6.766a9.145,9.145,0,0,0,2.242-3.56L35.572.519A9.655,9.655,0,0,1,38.525,0,4.8,4.8,0,0,1,42.51,1.786,5.4,5.4,0,0,1,43.09,7.4c-1.508,2.46-3.212,5.258-5.016,8.221L35.714,19.5c-3.288,5.413-7.381,12.149-11.162,18.274-.038.078-.072.144-.123.229a2.906,2.906,0,0,1-2.077,1.813l-.053.018Z" transform="translate(104.198 12.58)"/><path class="a" d="M143.958,3.8V22.939a1.608,1.608,0,0,1-1.6,1.6H140.4a1.608,1.608,0,0,1-1.6-1.6V17.006a1.608,1.608,0,0,0-1.6-1.6H130.26a1.608,1.608,0,0,0-1.6,1.6v5.951a1.608,1.608,0,0,1-1.6,1.6H125.1a1.608,1.608,0,0,1-1.6-1.6V3.8a1.608,1.608,0,0,1,1.6-1.6h1.954a1.608,1.608,0,0,1,1.6,1.6V9.4a1.608,1.608,0,0,0,1.6,1.6H137.2a1.608,1.608,0,0,0,1.6-1.6V3.8a1.608,1.608,0,0,1,1.6-1.6h1.954a1.608,1.608,0,0,1,1.6,1.6" transform="translate(-101.757 -1.813)"/><path class="a" d="M261.8,11.567C261.8,4.93,266.976,0,274.036,0c7.025,0,12.236,4.894,12.236,11.567s-5.211,11.567-12.236,11.567c-7.06,0-12.236-4.93-12.236-11.567m19.243,0a6.991,6.991,0,1,0-13.979,0,6.991,6.991,0,1,0,13.979,0" transform="translate(-215.709)"/><path class="a" d="M442.384,10.316c0,4.982-3.732,8.081-9.718,8.081H429.18a1.022,1.022,0,0,0-1.021,1.021v4.12a1.022,1.022,0,0,1-1.021,1.021h-3.116A1.022,1.022,0,0,1,423,23.538V3.221A1.022,1.022,0,0,1,424.021,2.2h8.644c5.986,0,9.718,3.1,9.718,8.116m-5.246,0c0-2.465-1.6-3.891-4.753-3.891H429.2a1.022,1.022,0,0,0-1.021,1.021v5.7a1.022,1.022,0,0,0,1.021,1.021h3.187c3.169,0,4.753-1.426,4.753-3.856" transform="translate(-348.528 -1.813)"/><path class="a" d="M171.706,184.02v2.342a.9.9,0,0,1-.9.9H155.3a.9.9,0,0,1-.9-.9V165.8a.9.9,0,0,1,.9-.9h15.088a.9.9,0,0,1,.9.9v2.342a.9.9,0,0,1-.9.9h-9.947a.9.9,0,0,0-.9.9v3.081a.9.9,0,0,0,.9.9h8.574a.9.9,0,0,1,.9.9v2.218a.9.9,0,0,1-.9.9h-8.574a.9.9,0,0,0-.9.9v3.38a.9.9,0,0,0,.9.9h10.37a.906.906,0,0,1,.9.915" transform="translate(-127.217 -135.868)"/><path class="a" d="M290.12,187.048l-4.014-5.81a.517.517,0,0,0-.4-.211h-4.014a.492.492,0,0,0-.493.493v5.246a.492.492,0,0,1-.493.493h-4.208a.492.492,0,0,1-.493-.493V165.393a.492.492,0,0,1,.493-.493h9.19c5.968,0,9.718,3.1,9.718,8.116a7.226,7.226,0,0,1-4.085,6.813.491.491,0,0,0-.176.722L295.3,186.5a.492.492,0,0,1-.4.775h-4.366a.566.566,0,0,1-.4-.229m-4.7-17.923h-3.732a.492.492,0,0,0-.493.493v6.813a.492.492,0,0,0,.493.493h3.732c3.169,0,4.754-1.461,4.754-3.891,0-2.482-1.585-3.908-4.754-3.908" transform="translate(-227.409 -135.868)"/><path class="a" d="M401.5,174.267c0-6.637,5.176-11.567,12.236-11.567,7.025,0,12.236,4.894,12.236,11.567s-5.211,11.567-12.236,11.567c-7.06,0-12.236-4.912-12.236-11.567m19.243,0a6.991,6.991,0,1,0-6.989,7.148,6.821,6.821,0,0,0,6.989-7.148" transform="translate(-330.814 -134.056)"/><path class="a" d="M29.811,166.266v19.806a1.262,1.262,0,0,1-1.268,1.268H25.92a1.262,1.262,0,0,1-1.268-1.268v-6.62a1.262,1.262,0,0,0-1.268-1.268H15.744a1.262,1.262,0,0,0-1.268,1.268v6.62a1.262,1.262,0,0,1-1.268,1.268H10.568A1.262,1.262,0,0,1,9.3,186.072V166.266A1.262,1.262,0,0,1,10.568,165h2.623a1.262,1.262,0,0,1,1.268,1.268v6.268a1.262,1.262,0,0,0,1.268,1.268h7.606a1.262,1.262,0,0,0,1.268-1.268v-6.268A1.262,1.262,0,0,1,25.867,165H28.49a1.275,1.275,0,0,1,1.32,1.268" transform="translate(-7.663 -135.949)"/><path class="a" d="M20.993,37.568H20.36a1.864,1.864,0,0,1-1.316-1.228c-.055-.116-.106-.225-.163-.32-1.413-2.289-2.958-4.806-4.721-7.694H27.194c-1.821,2.983-3.366,5.5-4.721,7.694a3.553,3.553,0,0,0-.184.351,1.841,1.841,0,0,1-1.3,1.2ZM12.135,25v0C10.71,22.662,9.3,20.332,7.927,18.08,5.169,13.539,2.565,9.251.36,5.666a4.3,4.3,0,0,1,.2-3.84A3.612,3.612,0,0,1,3.953,0,8.575,8.575,0,0,1,6.574.473L17.694,5.693a10.482,10.482,0,0,0-6.137,3.249.766.766,0,0,0-.182.622.8.8,0,0,0,.375.557l2.57,1.585a.8.8,0,0,0,.429.123.9.9,0,0,0,.628-.264,5.878,5.878,0,0,1,4.4-1.725c2.407,0,3.733.994,3.733,2.8,0,1.148-.413,2.291-2.43,4.137l-8.75,7.958a.8.8,0,0,0-.2.266Zm17.435-.575h0a.842.842,0,0,0-.67-.326H21.768A.816.816,0,0,1,21,23.579a.76.76,0,0,1,.208-.852l3.838-3.5c3.254-2.9,3.908-4.868,3.908-7.1a5.941,5.941,0,0,0-1.5-4.042,7.886,7.886,0,0,0-4.071-2.264L34.779.473A8.592,8.592,0,0,1,37.4,0a3.609,3.609,0,0,1,3.388,1.813,4.32,4.32,0,0,1,.2,3.853c-2.2,3.584-4.808,7.871-7.565,12.41-1.26,2.075-2.553,4.2-3.859,6.349Z" transform="translate(105.379 1.446)"/></svg>