<svg xmlns="http://www.w3.org/2000/svg" width="56.53" height="51.591" viewBox="0 0 56.53 51.591"><defs><style>.a{fill:#71c7e5;}</style></defs><path class="a" d="M28.855,51.591H27.713l-.152-.038a3.9,3.9,0,0,1-2.7-2.359,2.262,2.262,0,0,0-.152-.3C19.99,41.2,15.043,33.1,10.287,25.261,6.787,19.554,3.476,14.113.7,9.585-.366,7.872-.29,4.562,1.46,2.317,2.525.948,5.113-1.031,10.439.681l.152.076L28.246,9.052,46.091.681c5.327-1.75,7.914.266,8.98,1.636,1.75,2.245,1.826,5.555.761,7.267-2.777,4.528-6.05,9.931-9.55,15.676-4.756,7.838-9.7,15.981-14.458,23.667a2.268,2.268,0,0,0-.152.3,3.9,3.9,0,0,1-2.7,2.359Zm-.8-2.93h.419c.228-.076.342-.266.571-.723.114-.19.19-.419.3-.571,4.756-7.686,9.664-15.79,14.42-23.629,3.462-5.707,6.773-11.148,9.55-15.676a4.316,4.316,0,0,0-.571-3.919c-1.294-1.636-3.8-1.294-5.707-.685l-18.8,8.827L9.45,3.459c-1.9-.609-4.414-.951-5.707.685a4.316,4.316,0,0,0-.571,3.919C5.95,12.629,9.26,18.032,12.76,23.777c4.756,7.838,9.7,15.943,14.42,23.59.114.152.19.38.3.571.228.457.342.647.571.723" transform="translate(56.53 51.591) rotate(180)"/><path class="a" d="M-40.359-6.216a8.9,8.9,0,0,0,8.891-8.892A8.9,8.9,0,0,0-40.359-24a8.9,8.9,0,0,0-8.892,8.892A8.9,8.9,0,0,0-40.359-6.216Zm-1.053-14.119v-.242a1.053,1.053,0,0,1,1.053-1.053,1.053,1.053,0,0,1,1.053,1.053v.243a2.784,2.784,0,0,1,2.2,2.718,1.053,1.053,0,0,1-1.053,1.053,1.053,1.053,0,0,1-1.053-1.053.675.675,0,0,0-.674-.674h-.944a.675.675,0,0,0-.674.674.675.675,0,0,0,.273.541l.876.649,2.129,1.575A2.791,2.791,0,0,1-37.1-12.635v.01a2.761,2.761,0,0,1-.8,1.972,2.76,2.76,0,0,1-1.4.767v.246a1.053,1.053,0,0,1-1.053,1.053A1.053,1.053,0,0,1-41.412-9.64v-.243a2.756,2.756,0,0,1-1.368-.74,2.758,2.758,0,0,1-.826-1.961,1.053,1.053,0,0,1,1.046-1.059h.007A1.053,1.053,0,0,1-41.5-12.6a.673.673,0,0,0,.677.67l.943-.006a.673.673,0,0,0,.67-.679v-.01a.677.677,0,0,0-.273-.537l-.875-.648-2.129-1.575a2.793,2.793,0,0,1-1.126-2.235A2.784,2.784,0,0,1-41.412-20.335Z" transform="translate(68.368 41.898)"/></svg>