<svg xmlns="http://www.w3.org/2000/svg" width="56.707" height="59.932" viewBox="0 0 56.707 59.932"><defs><style>.a{fill:#71c7e5;}.b{fill:#f4ce30;}</style></defs><g transform="translate(-701.194 -125.638)"><path class="a" d="M701.194,362.638a1.844,1.844,0,0,1,1.455-1.435,2.2,2.2,0,0,1,.484-.042q3.193,0,6.386,0c.089,0,.178.011.227.014-.052,1.121-.1,2.218-.158,3.371h-6.272a1.9,1.9,0,0,1-2.123-1.479Z" transform="translate(0 -211.633)"/><path class="a" d="M964.336,125.638a7.243,7.243,0,0,1,1.039.534,1.381,1.381,0,0,1,.541,1.148c.01,1.892,0,3.785,0,5.677a.311.311,0,0,1-.017.066h-3.762v-.312q0-2.579,0-5.159a1.752,1.752,0,0,1,1.508-1.911.324.324,0,0,0,.078-.045Z" transform="translate(-234.478 0)"/><path class="a" d="M827.568,269.012c-1.62,0-3.239.018-4.859-.005a4.263,4.263,0,0,1-3.5-1.691,3.672,3.672,0,0,1-.714-2.1c-.07-1.227-.188-2.452-.3-3.676a2.186,2.186,0,0,0-.706-1.322c-.87-.886-1.765-1.749-2.643-2.627a14.4,14.4,0,0,1-4.063-6.836c-1.474-6.142.107-11.36,4.838-15.577A17.194,17.194,0,0,1,821.042,232a18.666,18.666,0,0,1,8.5-1.057,15.957,15.957,0,0,1,4.077.852,18.111,18.111,0,0,1,7.028,4.473,14.9,14.9,0,0,1,3.989,7.747,15.806,15.806,0,0,1,.108,4.471,14.239,14.239,0,0,1-2.838,7.226,29.536,29.536,0,0,1-3.318,3.5c-.052.049-.106.1-.156.146-1.637,1.614-1.531,1.673-1.762,4.154-.066.708,0,1.433-.1,2.133a3.764,3.764,0,0,1-2.906,3.178,4.829,4.829,0,0,1-1.323.181C830.746,269.025,829.157,269.012,827.568,269.012Zm-.008-2.632q2.4,0,4.8,0a1.28,1.28,0,0,0,1.334-1.307c.013-1.117.128-2.234.227-3.348a5.169,5.169,0,0,1,1.466-3.211c.452-.469.921-.922,1.373-1.391.861-.894,1.773-1.748,2.561-2.7a11.589,11.589,0,0,0,2.556-6.665,12.128,12.128,0,0,0-3.384-9.686,14.492,14.492,0,0,0-9.9-4.548,14.732,14.732,0,0,0-9.577,2.542,12.4,12.4,0,0,0-5.681,12.616,11.769,11.769,0,0,0,3.36,6.8c.866.891,1.775,1.739,2.657,2.614a5.6,5.6,0,0,1,1.84,3.551q.146,1.779.247,3.561a1.071,1.071,0,0,0,.6.986,1.914,1.914,0,0,0,.789.183C824.4,266.388,825.98,266.38,827.559,266.38Z" transform="translate(-98.001 -94.539)"/><path class="a" d="M922.262,661.12c-1.527,0-3.055.007-4.582-.006a2.977,2.977,0,0,1-.926-.135,1.57,1.57,0,0,1-1.09-1.649,1.688,1.688,0,0,1,1.373-1.41,3.108,3.108,0,0,1,.545-.053q4.689,0,9.377,0a2.02,2.02,0,0,1,1.335.434,1.524,1.524,0,0,1,.51,1.644,1.684,1.684,0,0,1-1.474,1.15c-.65.032-1.3.022-1.954.024C924.339,661.123,923.3,661.12,922.262,661.12Z" transform="translate(-192.711 -478.245)"/><path class="a" d="M922.253,620.634c-1.619,0-3.237,0-4.856,0a1.774,1.774,0,0,1-1.653-1.1,1.6,1.6,0,0,1,1.2-2.079,2.187,2.187,0,0,1,.512-.064q4.81-.005,9.621,0a1.773,1.773,0,0,1,1.691,1.083,1.637,1.637,0,0,1-1.6,2.153C925.531,620.646,923.892,620.634,922.253,620.634Z" transform="translate(-192.704 -441.876)"/><path class="a" d="M785.534,199.265l-2.588,2.462c-.635-.571-1.3-1.167-1.962-1.764-.891-.8-1.784-1.605-2.671-2.414a1.585,1.585,0,0,1-.521-1.908,1.913,1.913,0,0,1,1.83-1.081,2.024,2.024,0,0,1,1.276.508q2.266,2.043,4.531,4.089C785.473,199.194,785.51,199.24,785.534,199.265Z" transform="translate(-68.706 -61.927)"/><path class="a" d="M1108.957,201.8l-2.587-2.452a.827.827,0,0,1,.1-.118q2.209-2,4.421-3.99a2.079,2.079,0,0,1,2.4-.383,1.606,1.606,0,0,1,.375,2.693c-.817.751-1.645,1.49-2.469,2.233Z" transform="translate(-364.08 -61.998)"/><path class="a" d="M1176.236,364.52c-.052-1.131-.1-2.235-.154-3.361.051,0,.14-.013.229-.014,2.127,0,4.254,0,6.382,0a1.925,1.925,0,0,1,1.48.6,1.583,1.583,0,0,1-.388,2.5,1.715,1.715,0,0,1-.8.267C1180.739,364.529,1178.491,364.52,1176.236,364.52Z" transform="translate(-426.721 -211.619)"/><path class="a" d="M781.978,499.265l2.363,2.675c-.26.237-.534.489-.809.738q-1.269,1.147-2.539,2.293a2.051,2.051,0,0,1-2.532.237,1.58,1.58,0,0,1-.228-2.558c.8-.749,1.63-1.476,2.446-2.213Z" transform="translate(-68.731 -335.731)"/><path class="a" d="M1120.666,499.256c.705.634,1.417,1.273,2.127,1.913q.783.706,1.563,1.414a1.539,1.539,0,0,1,.536,1.67,1.722,1.722,0,0,1-1.42,1.233,1.95,1.95,0,0,1-1.76-.472q-1.66-1.489-3.31-2.989c-.037-.033-.068-.072-.094-.1Z" transform="translate(-374.807 -335.723)"/><path class="a" d="M940.34,698.882h8.175a.839.839,0,0,1-.264.795,2.954,2.954,0,0,1-1.9.881,15.4,15.4,0,0,1-4.073-.045,2.886,2.886,0,0,1-1.684-.851A.865.865,0,0,1,940.34,698.882Z" transform="translate(-214.878 -515.101)"/><path class="b" d="M910.723,323.7c-.223-3.944,3.044-6.734,6.274-7.152a7.2,7.2,0,0,1,7.748,4.746,6.7,6.7,0,0,1-3.122,7.808c-.679.4-1.324.868-1.974,1.32a1.14,1.14,0,0,0-.5,1.071,1.021,1.021,0,0,1-1.07,1.085,1.123,1.123,0,0,1-1.278-.881,3.14,3.14,0,0,1,.8-2.6,10.58,10.58,0,0,1,2.626-1.918,4.667,4.667,0,0,0,2-1.989,4.258,4.258,0,0,0-1.959-5.767,4.939,4.939,0,0,0-7.036,2.86,11.093,11.093,0,0,0-.147,2.3,1.187,1.187,0,0,1-.793,1.148,1.116,1.116,0,0,1-1.305-.394,1.649,1.649,0,0,1-.249-.7A7.172,7.172,0,0,1,910.723,323.7Z" transform="translate(-188.267 -171.493)"/><path class="a" d="M970.634,498.685a1.344,1.344,0,1,1,.042,2.689,1.344,1.344,0,0,1-.042-2.689Z" transform="translate(-240.926 -335.209)"/></g></svg>