<svg xmlns="http://www.w3.org/2000/svg" width="40.98" height="47.848" viewBox="0 0 40.98 47.848"><defs><style>.a{fill:#211915;}.b{fill:#f3d559;}</style></defs><g transform="translate(-1585.639 -4508)"><path class="a" d="M840.768,4491.148c-4.723,7.687-11.386,18.772-17.389,28.5-.275.446-.419,1.224-1.393,1.448h-.6c-.974-.224-1.118-1-1.393-1.448-6-9.724-12.666-20.81-17.389-28.5-.9-1.458-.347-6.886,5.834-4.882l13.246,6.213,13.246-6.213c6.182-2,6.731,3.423,5.834,4.882" transform="translate(784.44 22.173)"/><g transform="translate(314 2.256)"><path class="a" d="M815.03,4602.789h-.838l-.118-.026a2.767,2.767,0,0,1-1.948-1.708c-.038-.079-.071-.154-.111-.219-3.433-5.559-7-11.436-10.456-17.121-2.526-4.157-4.912-8.083-6.935-11.376a5.061,5.061,0,0,1,.553-5.268c.772-.98,2.646-2.438,6.517-1.183l.124.049,12.794,6,12.918-6.049c3.872-1.256,5.745.2,6.517,1.184a5.059,5.059,0,0,1,.552,5.268c-2.018,3.285-4.4,7.2-6.918,11.349-3.458,5.693-7.035,11.579-10.473,17.147-.039.064-.073.14-.111.219a2.767,2.767,0,0,1-1.949,1.708Zm-.573-2.127h.308c.174-.062.246-.181.413-.53a4.554,4.554,0,0,1,.218-.413c3.435-5.563,7.009-11.446,10.465-17.135,2.521-4.15,4.9-8.07,6.924-11.359a3.106,3.106,0,0,0-.411-2.838c-.936-1.189-2.748-.933-4.126-.5l-13.636,6.4-13.636-6.4c-1.38-.438-3.191-.694-4.126.5a3.1,3.1,0,0,0-.412,2.838c2.026,3.3,4.413,7.226,6.94,11.385,3.451,5.681,7.02,11.556,10.448,17.108a4.529,4.529,0,0,1,.219.414c.167.349.239.467.413.53" transform="translate(477.518 -49.196)"/><path class="b" d="M8.049,35.782a4.164,4.164,0,1,0,4.164,4.164A4.158,4.158,0,0,0,8.049,35.782Zm0,6.871a2.707,2.707,0,1,1,2.707-2.707,2.712,2.712,0,0,1-2.707,2.707Zm5.306-7.042a.971.971,0,1,1-.971-.971A.969.969,0,0,1,13.355,35.611Zm2.758.986a4.807,4.807,0,0,0-1.312-3.4,4.838,4.838,0,0,0-3.4-1.312c-1.341-.076-5.36-.076-6.7,0a4.831,4.831,0,0,0-3.4,1.308,4.822,4.822,0,0,0-1.312,3.4c-.076,1.341-.076,5.36,0,6.7a4.807,4.807,0,0,0,1.312,3.4,4.844,4.844,0,0,0,3.4,1.312c1.341.076,5.36.076,6.7,0A4.807,4.807,0,0,0,14.8,46.7a4.838,4.838,0,0,0,1.312-3.4C16.189,41.953,16.189,37.938,16.113,36.6Zm-1.732,8.136a2.741,2.741,0,0,1-1.544,1.544c-1.069.424-3.606.326-4.787.326s-3.722.094-4.787-.326a2.741,2.741,0,0,1-1.544-1.544c-.424-1.069-.326-3.606-.326-4.787s-.094-3.722.326-4.787a2.741,2.741,0,0,1,1.544-1.544c1.069-.424,3.606-.326,4.787-.326s3.722-.094,4.787.326a2.741,2.741,0,0,1,1.544,1.544c.424,1.069.326,3.606.326,4.787S14.8,43.668,14.381,44.733Z" transform="translate(1284.074 4481.417)"/></g></g></svg>