<svg xmlns="http://www.w3.org/2000/svg" width="40.98" height="47.848" viewBox="0 0 40.98 47.848"><defs><style>.a{fill:#211915;}.b{fill:#f3d559;}</style></defs><g transform="translate(-1503.639 -4508.375)"><path class="a" d="M840.768,4491.148c-4.723,7.687-11.386,18.772-17.389,28.5-.275.446-.419,1.224-1.393,1.448h-.6c-.974-.224-1.118-1-1.393-1.448-6-9.724-12.666-20.81-17.389-28.5-.9-1.458-.347-6.886,5.834-4.882l13.246,6.213,13.246-6.213c6.182-2,6.731,3.423,5.834,4.882" transform="translate(702.44 22.547)"/><g transform="translate(232 2.63)"><path class="a" d="M815.03,4602.789h-.838l-.118-.026a2.767,2.767,0,0,1-1.948-1.708c-.038-.079-.071-.154-.111-.219-3.433-5.559-7-11.436-10.456-17.121-2.526-4.157-4.912-8.083-6.935-11.376a5.061,5.061,0,0,1,.553-5.268c.772-.98,2.646-2.438,6.517-1.183l.124.049,12.794,6,12.918-6.049c3.872-1.256,5.745.2,6.517,1.184a5.059,5.059,0,0,1,.552,5.268c-2.018,3.285-4.4,7.2-6.918,11.349-3.458,5.693-7.035,11.579-10.473,17.147-.039.064-.073.14-.111.219a2.767,2.767,0,0,1-1.949,1.708Zm-.573-2.127h.308c.174-.062.246-.181.413-.53a4.554,4.554,0,0,1,.218-.413c3.435-5.563,7.009-11.446,10.465-17.135,2.521-4.15,4.9-8.07,6.924-11.359a3.106,3.106,0,0,0-.411-2.838c-.936-1.189-2.748-.933-4.126-.5l-13.636,6.4-13.636-6.4c-1.38-.438-3.191-.694-4.126.5a3.1,3.1,0,0,0-.412,2.838c2.026,3.3,4.413,7.226,6.94,11.385,3.451,5.681,7.02,11.556,10.448,17.108a4.529,4.529,0,0,1,.219.414c.167.349.239.467.413.53" transform="translate(477.518 -49.196)"/><path class="b" d="M3.624,16.2H.267V5.39H3.624ZM1.944,3.916A1.953,1.953,0,1,1,3.887,1.954,1.96,1.96,0,0,1,1.944,3.916ZM16.185,16.2H12.836V10.937c0-1.254-.025-2.862-1.745-2.862-1.745,0-2.012,1.362-2.012,2.772V16.2H5.726V5.39H8.945V6.864h.047a3.527,3.527,0,0,1,3.176-1.745c3.4,0,4.021,2.237,4.021,5.142V16.2Z" transform="translate(1283.906 4510.896)"/></g></g></svg>