<svg xmlns="http://www.w3.org/2000/svg" width="256.161" height="49.279" viewBox="0 0 256.161 49.279">
  <g id="Group_342" data-name="Group 342" transform="translate(-143.839 -35)">
    <g id="Logo-Option2" transform="translate(143.839 35.003)">
      <path id="Path_649" data-name="Path 649" d="M.369,21.075h0a2.323,2.323,0,0,1,3.124-1.193,14.276,14.276,0,0,0,5.993,1.392c3.351,0,4.715-1.136,4.715-2.7C14.2,13.889,0,17.1,0,7.811,0,3.55,3.351,0,10.282,0a18.061,18.061,0,0,1,6.362,1.136A2.407,2.407,0,0,1,17.95,4.26a2.322,2.322,0,0,1-3.039,1.307,12.844,12.844,0,0,0-4.658-.937C6.9,4.63,5.624,5.908,5.624,7.5c0,4.63,14.2,1.42,14.2,10.622,0,4.2-3.38,7.782-10.367,7.782a19.339,19.339,0,0,1-7.924-1.676A2.4,2.4,0,0,1,.369,21.075" transform="translate(0 -0.002)" fill="#71c7e5"/>
      <path id="Path_650" data-name="Path 650" d="M105.81,3.388V24.86a1.776,1.776,0,0,1-1.761,1.789h-2.13a1.776,1.776,0,0,1-1.761-1.789v-6.7A1.776,1.776,0,0,0,98.4,16.367H90.813a1.776,1.776,0,0,0-1.761,1.789v6.675a1.776,1.776,0,0,1-1.761,1.789h-2.13A1.776,1.776,0,0,1,83.4,24.831V3.388A1.776,1.776,0,0,1,85.161,1.6h2.13a1.776,1.776,0,0,1,1.761,1.789V9.664a1.776,1.776,0,0,0,1.761,1.789H98.4a1.776,1.776,0,0,0,1.761-1.789V3.388A1.776,1.776,0,0,1,101.918,1.6h2.13a1.758,1.758,0,0,1,1.761,1.789" transform="translate(-59.712 -1.146)" fill="#71c7e5"/>
      <path id="Path_651" data-name="Path 651" d="M177.3,12.951C177.3,5.51,182.952,0,190.678,0c7.669,0,13.378,5.482,13.378,12.951S198.375,25.9,190.678,25.9c-7.725.028-13.378-5.482-13.378-12.951m20.989,0c0-4.772-3.266-8.009-7.64-8.009s-7.64,3.266-7.64,8.009c0,4.772,3.295,8.009,7.64,8.009,4.374.028,7.64-3.238,7.64-8.009" transform="translate(-126.943 -0.002)" fill="#71c7e5"/>
      <path id="Path_652" data-name="Path 652" d="M307.731,10.66c0,5.6-4.09,9.06-10.594,9.06h-3.806a1.115,1.115,0,0,0-1.108,1.136v4.6a1.134,1.134,0,0,1-1.108,1.136h-3.408a1.115,1.115,0,0,1-1.108-1.136V2.736A1.134,1.134,0,0,1,287.708,1.6h9.458c6.476-.028,10.566,3.437,10.566,9.06m-5.737,0c0-2.755-1.733-4.374-5.2-4.374H293.3A1.123,1.123,0,0,0,292.2,7.45v6.391a1.134,1.134,0,0,0,1.108,1.136H296.8c3.465.028,5.2-1.591,5.2-4.317" transform="translate(-205.199 -1.147)" fill="#71c7e5"/>
      <path id="Path_653" data-name="Path 653" d="M659.244,105.144v2.641a1.012,1.012,0,0,1-.994,1.022H641.294a1.013,1.013,0,0,1-.994-1.022V84.722a1.013,1.013,0,0,1,.994-1.022h16.5a1.012,1.012,0,0,1,.994,1.022v2.641a1.012,1.012,0,0,1-.994,1.022H646.918a1.012,1.012,0,0,0-.994,1.022v3.408a1.012,1.012,0,0,0,.994,1.022h9.373a1.013,1.013,0,0,1,.994,1.022v2.5a1.013,1.013,0,0,1-.994,1.022h-9.373a1.012,1.012,0,0,0-.994,1.022v3.778a1.012,1.012,0,0,0,.994,1.022H658.25a.894.894,0,0,1,.994.937" transform="translate(-458.439 -59.929)" fill="#71c7e5"/>
      <path id="Path_654" data-name="Path 654" d="M738.122,108.624l-4.4-6.5a.5.5,0,0,0-.426-.227H728.92a.559.559,0,0,0-.54.54v5.879a.522.522,0,0,1-.54.54h-4.6a.559.559,0,0,1-.54-.54V84.34a.522.522,0,0,1,.54-.54h10.055c6.533,0,10.622,3.465,10.622,9.089a8.107,8.107,0,0,1-4.459,7.64.545.545,0,0,0-.2.8L743.8,108a.536.536,0,0,1-.426.852h-4.772a.607.607,0,0,1-.483-.227m-5.141-20.109H728.92a.559.559,0,0,0-.54.54v7.64a.522.522,0,0,0,.54.54h4.062c3.465,0,5.2-1.647,5.2-4.374s-1.733-4.346-5.2-4.346" transform="translate(-517.436 -60.001)" fill="#71c7e5"/>
      <path id="Path_655" data-name="Path 655" d="M807.7,95.251c0-7.441,5.652-12.951,13.378-12.951,7.669,0,13.378,5.482,13.378,12.951S828.775,108.2,821.078,108.2c-7.725,0-13.378-5.51-13.378-12.951m21.018,0c0-4.772-3.266-8.009-7.64-8.009s-7.64,3.266-7.64,8.009c0,4.772,3.295,8.009,7.64,8.009s7.64-3.266,7.64-8.009" transform="translate(-578.294 -58.927)" fill="#71c7e5"/>
      <path id="Path_656" data-name="Path 656" d="M564.509,85.218v22.211a1.4,1.4,0,0,1-1.392,1.42h-2.869a1.4,1.4,0,0,1-1.392-1.42v-7.413a1.4,1.4,0,0,0-1.392-1.42h-8.322a1.4,1.4,0,0,0-1.392,1.42v7.413a1.4,1.4,0,0,1-1.392,1.42h-2.869a1.4,1.4,0,0,1-1.392-1.42V85.218a1.4,1.4,0,0,1,1.392-1.42h2.869a1.4,1.4,0,0,1,1.392,1.42v7.015a1.4,1.4,0,0,0,1.392,1.42h8.322a1.4,1.4,0,0,0,1.392-1.42V85.218a1.4,1.4,0,0,1,1.392-1.42h2.869a1.383,1.383,0,0,1,1.392,1.42" transform="translate(-388.131 -59.999)" fill="#71c7e5"/>
      <path id="Path_657" data-name="Path 657" d="M406.4,76.421h-.852l-.114-.028a2.912,2.912,0,0,1-2.017-1.761,1.687,1.687,0,0,0-.114-.227c-3.522-5.737-7.214-11.787-10.765-17.638-2.613-4.26-5.084-8.322-7.157-11.7a5.2,5.2,0,0,1,.568-5.425c.8-1.022,2.727-2.5,6.7-1.221l.114.057,13.179,6.192,13.321-6.249c3.976-1.307,5.908.2,6.7,1.221a5.2,5.2,0,0,1,.568,5.425c-2.073,3.38-4.516,7.413-7.129,11.7-3.55,5.851-7.243,11.929-10.793,17.666a1.687,1.687,0,0,0-.114.227,2.912,2.912,0,0,1-2.017,1.761Zm-.6-2.187h.312c.17-.057.256-.2.426-.54.085-.142.142-.312.227-.426,3.55-5.737,7.214-11.787,10.765-17.638,2.585-4.26,5.056-8.322,7.129-11.7A3.222,3.222,0,0,0,424.239,41c-.966-1.221-2.84-.966-4.26-.511l-14.031,6.589-14.031-6.589c-1.42-.454-3.295-.71-4.26.511a3.222,3.222,0,0,0-.426,2.925c2.073,3.408,4.544,7.441,7.157,11.73,3.55,5.851,7.243,11.9,10.765,17.609.085.114.142.284.227.426.17.341.256.483.426.54" transform="translate(-275.553 -27.144)" fill="#71c7e5"/>
      <path id="Path_658" data-name="Path 658" d="M428.414,5.48c-4.857,7.924-11.73,19.342-17.922,29.34-.284.454-.426,1.25-1.42,1.505h-.625c-.994-.227-1.164-1.022-1.42-1.505-6.192-10-13.037-21.415-17.894-29.34-.909-1.505-.369-7.1,6.021-5.027l13.633,6.391L422.421.452c6.362-2.073,6.93,3.522,5.993,5.027" transform="translate(-278.364 0)" fill="#f4ce30"/>
      <path id="Path_659" data-name="Path 659" d="M445.331,37.474V40.03a.788.788,0,0,1-.8.767H429.056a.77.77,0,0,1-.8-.767V37.872a.757.757,0,0,1,.256-.568l8.464-7.7c1.988-1.818,2.357-2.954,2.357-4,0-1.7-1.221-2.7-3.607-2.7a5.67,5.67,0,0,0-4.26,1.676.822.822,0,0,1-1.023.142l-2.471-1.534a.775.775,0,0,1-.2-1.136,11.015,11.015,0,0,1,8.436-3.351c5.027,0,8.379,2.471,8.379,6.419,0,2.1-.625,4.033-3.778,6.873l-3.721,3.38a.767.767,0,0,0,.54,1.335h6.9a.788.788,0,0,1,.8.767" transform="translate(-306.159 -13.391)" fill="#fff"/>
    </g>
  </g>
</svg>
