<svg xmlns="http://www.w3.org/2000/svg" width="128" height="116.814" viewBox="0 0 128 116.814">
  <g id="Group_6377" data-name="Group 6377" transform="translate(-1067.238 -2346.593)">
    <path id="Path_716" data-name="Path 716" d="M65.335,116.814H62.751l-.345-.086a8.832,8.832,0,0,1-6.117-5.341,5.122,5.122,0,0,0-.345-.689c-10.683-17.4-21.883-35.753-32.652-53.5C15.367,44.274,7.872,31.954,1.583,21.7-.83,17.825-.657,10.33,3.306,5.247c2.412-3.1,8.271-7.581,20.332-3.7l.345.172L63.957,20.5,104.362,1.542c12.061-3.963,17.92.6,20.332,3.7,3.963,5.083,4.135,12.578,1.723,16.455-6.289,10.252-13.7,22.486-21.624,35.495C94.024,74.944,82.824,93.381,72.055,110.784a5.137,5.137,0,0,0-.345.689,8.832,8.832,0,0,1-6.117,5.341Zm-1.809-6.634h.948c.517-.172.775-.6,1.292-1.637.258-.431.431-.948.689-1.292,10.769-17.4,21.883-35.753,32.652-53.5,7.84-12.923,15.335-25.243,21.624-35.495.775-1.206,1.034-5.858-1.292-8.874-2.929-3.7-8.615-2.929-12.923-1.551L63.957,27.819,21.4,7.832C17.09,6.453,11.4,5.678,8.475,9.382,6.149,12.4,6.407,17.05,7.182,18.256c6.289,10.338,13.785,22.572,21.711,35.581,10.769,17.747,21.969,36.1,32.652,53.415.258.345.431.862.689,1.292.517,1.034.775,1.465,1.292,1.637" transform="translate(1195.238 2463.407) rotate(180)" fill="#888"/>
    <path id="Path_843" data-name="Path 843" d="M-29.117,16.268A20.155,20.155,0,0,0-8.985-3.866,20.155,20.155,0,0,0-29.117-24,20.157,20.157,0,0,0-49.251-3.866,20.157,20.157,0,0,0-29.117,16.268ZM-31.5-15.7v-.547a2.383,2.383,0,0,1,2.384-2.384,2.384,2.384,0,0,1,2.384,2.384v.55a6.3,6.3,0,0,1,4.972,6.153A2.385,2.385,0,0,1-24.145-7.16a2.384,2.384,0,0,1-2.384-2.384,1.528,1.528,0,0,0-1.526-1.526h-2.138a1.528,1.528,0,0,0-1.526,1.526A1.528,1.528,0,0,0-31.1-8.319l1.984,1.469,4.82,3.567a6.32,6.32,0,0,1,2.55,5.017v.022a6.252,6.252,0,0,1-1.815,4.465,6.249,6.249,0,0,1-3.17,1.736v.558A2.384,2.384,0,0,1-29.117,10.9,2.383,2.383,0,0,1-31.5,8.515v-.55A6.241,6.241,0,0,1-34.6,6.29a6.246,6.246,0,0,1-1.871-4.44A2.384,2.384,0,0,1-34.1-.549h.016A2.385,2.385,0,0,1-31.7,1.821a1.523,1.523,0,0,0,1.534,1.516l2.135-.013a1.525,1.525,0,0,0,1.516-1.537V1.766A1.532,1.532,0,0,0-27.135.55L-29.117-.918l-4.821-3.567a6.325,6.325,0,0,1-2.55-5.06A6.3,6.3,0,0,1-31.5-15.7Z" transform="translate(1159.773 2411.119)" fill="#888"/>
  </g>
</svg>
