<svg xmlns="http://www.w3.org/2000/svg" width="120.897" height="121.117" viewBox="0 0 120.897 121.117">
  <g id="noun_charity_center_1648492" data-name="noun_charity center_1648492" transform="translate(-15.095 -9.898)">
    <path id="Path_706" data-name="Path 706" d="M18.224,71.849a1.512,1.512,0,0,0,2.729.9l7.222-9.818,7.434,10.105a1.511,1.511,0,0,0,2.436-1.789l-7.988-10.86c1.555-2.14,5.032-7.3,5.032-10.63a6.912,6.912,0,1,0-13.825,0c0,3.577,3.44,8.555,5.017,10.649L18.519,70.959A1.49,1.49,0,0,0,18.224,71.849Zm9.951-25.985a3.9,3.9,0,0,1,3.89,3.89c0,1.857-2.079,5.452-3.913,8.093-1.819-2.546-3.869-6.069-3.869-8.093A3.9,3.9,0,0,1,28.175,45.863Z" transform="translate(9.316 16.842)" fill="#211915"/>
    <path id="Path_707" data-name="Path 707" d="M11.5,23.121h4.046V129.5a1.512,1.512,0,0,0,1.511,1.511H123.818a1.512,1.512,0,0,0,1.511-1.511V23.121h4.046a1.512,1.512,0,0,0,1.511-1.511v-10.2A1.512,1.512,0,0,0,129.374,9.9H11.5a1.512,1.512,0,0,0-1.511,1.511v10.2A1.511,1.511,0,0,0,11.5,23.121ZM122.307,99.762H49.53V53.732h72.777ZM49.53,102.784H59.1v25.208H49.53Zm12.6,0h9.6v25.208h-9.6Zm12.619,0h9.6v25.208h-9.6Zm12.617,0h9.6v25.208h-9.6V102.784Zm12.619,0h9.6v25.208h-9.6Zm-53.474,15.9H18.57V53.732H46.509v64.955ZM18.57,121.709H46.509v6.284H18.57Zm94.03,6.284V102.784h9.708v25.208Zm9.706-77.283H18.57V23.121H122.308V50.71ZM13.011,12.92H127.863V20.1H13.011V12.92Z" transform="translate(5.106)" fill="#211915"/>
    <path id="Path_708" data-name="Path 708" d="M79.118,57.765,73.4,63.7a1.511,1.511,0,0,0,2.176,2.1l5.717-5.933a1.511,1.511,0,1,0-2.176-2.1Z" transform="translate(37.307 24.234)" fill="#211915"/>
    <path id="Path_709" data-name="Path 709" d="M68.742,67.141a1.511,1.511,0,0,0,2.137-.039l11.5-11.936a1.511,1.511,0,1,0-2.176-2.1L68.7,65A1.51,1.51,0,0,0,68.742,67.141Z" transform="translate(34.905 21.833)" fill="#211915"/>
  </g>
</svg>
