<svg xmlns="http://www.w3.org/2000/svg" width="124.602" height="109.821" viewBox="0 0 124.602 109.821">
  <g id="Group_370" data-name="Group 370" transform="translate(-1073 -1910.993)">
    <path id="Union_14" data-name="Union 14" d="M-2319.248,173.821h-.11a3.742,3.742,0,0,1-2.612-2.232,2.21,2.21,0,0,0-.147-.288c-4.6-7.273-9.379-14.979-13.976-22.4-3.384-5.437-6.547-10.55-9.232-14.835a6.473,6.473,0,0,1,.736-6.878c1.03-1.3,3.531-3.2,8.68-1.548l17.25,7.922,17.066-7.85.148-.072c5.149-1.62,7.65.252,8.679,1.548a6.474,6.474,0,0,1,.735,6.878c-2.685,4.285-5.884,9.434-9.268,14.835-4.6,7.417-9.379,15.087-13.939,22.36a2.118,2.118,0,0,0-.148.288,3.741,3.741,0,0,1-2.611,2.232l-.148.036Z" transform="translate(3454 1785.993)" fill="#f1cb30"/>
    <g id="Group_369" data-name="Group 369" transform="translate(-3286 7)">
      <path id="Path_840" data-name="Path 840" d="M17.488,187.09,29.2,192.947v13.1a2.434,2.434,0,0,0,2.434,2.434h25.8a2.434,2.434,0,0,0,2.434-2.434V174.273a14.4,14.4,0,0,0-12.992-14.381l-.2-.021c-4.282-.429-11.865-3.358-14.859-6.352l-5.465-5.463a9.671,9.671,0,0,0-6.883-2.852V125.735a9.735,9.735,0,1,0-19.469,0v33.059a31.639,31.639,0,0,0,17.488,28.3ZM4.867,125.735a4.867,4.867,0,0,1,9.735,0v20.774a9.732,9.732,0,0,0-2.015,15.312l12.463,12.465a2.434,2.434,0,1,0,3.442-3.441L16.028,158.379a4.867,4.867,0,0,1,1.818-8.031h0A4.86,4.86,0,0,1,22.91,151.5l5.465,5.463c5.643,5.643,17.971,7.766,18,7.773A9.557,9.557,0,0,1,55,174.273v29.337H34.071V191.443a2.434,2.434,0,0,0-1.345-2.177l-13.061-6.529a26.626,26.626,0,0,1-14.8-23.944Z" transform="translate(4359 1805.336)" fill="#f1cb30"/>
      <ellipse id="Ellipse_4" data-name="Ellipse 4" cx="3" cy="2.5" rx="3" ry="2.5" transform="translate(4468 1984)" fill="#f1cb30"/>
      <path id="Path_841" data-name="Path 841" d="M316.133,116a9.746,9.746,0,0,0-9.735,9.735V145.2a9.669,9.669,0,0,0-6.882,2.852l-5.466,5.464c-2.994,2.994-10.576,5.923-14.878,6.354l-.161.018A14.409,14.409,0,0,0,266,174.273v31.771a2.434,2.434,0,0,0,2.434,2.434h25.8a2.434,2.434,0,0,0,2.434-2.434v-13.1l7.965-3.982a2.434,2.434,0,1,0-2.176-4.354l-9.311,4.655a2.434,2.434,0,0,0-1.345,2.177v12.168H270.867V174.273a9.562,9.562,0,0,1,8.648-9.542l.161-.018c5.279-.529,14.019-3.957,17.815-7.753l5.466-5.464a4.862,4.862,0,0,1,5.061-1.15h0a4.867,4.867,0,0,1,1.818,8.031l-12.463,12.465a2.434,2.434,0,1,0,3.442,3.441l12.463-12.465a9.733,9.733,0,0,0-2.016-15.313V125.735a4.867,4.867,0,0,1,9.735,0v33.058a26.843,26.843,0,0,1-3.25,12.783,2.434,2.434,0,1,0,4.276,2.325,31.724,31.724,0,0,0,3.841-15.108V125.735A9.746,9.746,0,0,0,316.133,116Z" transform="translate(4157.734 1805.336)" fill="#f1cb30"/>
    </g>
  </g>
</svg>
