<svg xmlns="http://www.w3.org/2000/svg" width="53.996" height="55.289" viewBox="0 0 53.996 55.289"><defs><style>.a{fill:#71c7e5;}.b{fill:#f4ce30;}</style></defs><g transform="translate(-1382.386 -72.902)"><path class="a" d="M1413.891,513.305c-2.556,0-5.112-.007-7.668,0a4.774,4.774,0,0,1-2.582-.71c-2.158-1.32-4.358-2.565-6.611-3.719a9.851,9.851,0,0,0-4.01-1.013c-2.423-.139-4.848-.208-7.275-.229a3.431,3.431,0,0,1-3.349-3.373q-.021-4.466,0-8.933a3.4,3.4,0,0,1,3.263-3.375,16.739,16.739,0,0,0,5.045-1.012,16.273,16.273,0,0,1,14.571,2.033c1.638,1.177,3.25,2.393,4.986,3.432a8.852,8.852,0,0,0,3.092.952,62.864,62.864,0,0,0,7.91.863,3.1,3.1,0,0,1,1.081.231.5.5,0,0,0,.588-.106c1.747-1.477,3.456-2.995,5.051-4.638a8.93,8.93,0,0,1,2.463-1.925,3.985,3.985,0,0,1,4.656.816,4.033,4.033,0,0,1,.9,4.649,10.391,10.391,0,0,1-1.3,1.749c-2.843,3.678-5.753,7.308-8.3,11.206a7.214,7.214,0,0,1-2.88,2.669,4.111,4.111,0,0,1-1.847.432C1419.08,513.3,1416.486,513.305,1413.891,513.305Zm-.042-3.145c2.479,0,4.959-.022,7.438.011a2.444,2.444,0,0,0,2.157-1.222c.763-1.134,1.517-2.274,2.318-3.381,2.323-3.207,4.747-6.337,7.2-9.445a.8.8,0,0,0,.022-1.17.923.923,0,0,0-1.221-.305,3.151,3.151,0,0,0-.862.632c-1.866,1.875-3.79,3.688-5.831,5.374a.431.431,0,0,0-.162.53,3.3,3.3,0,0,1,.171,1.283,4.084,4.084,0,0,1-4.006,3.929c-2.74.156-5.483.278-8.224.416-1.046.053-2.094.074-3.135.175a5.128,5.128,0,0,1-2.4-.337,17.9,17.9,0,0,1-3.486-1.991c-1.4-.944-2.718-2-4.2-2.809a1.565,1.565,0,0,1-.719-2.174,1.582,1.582,0,0,1,2.214-.59,30.9,30.9,0,0,1,3.211,2.087,32.088,32.088,0,0,0,3.605,2.322,2.584,2.584,0,0,0,1.348.377c1.605-.1,3.211-.193,4.817-.277,1.772-.093,3.546-.174,5.318-.26.523-.026,1.047-.041,1.568-.083a.989.989,0,0,0,.951-.969.977.977,0,0,0-.991-.922c-.7-.045-1.4-.1-2.1-.147a49.977,49.977,0,0,1-6.6-.859,11,11,0,0,1-3.6-1.24c-1.517-.927-2.954-1.968-4.395-3.006a12.988,12.988,0,0,0-12.5-2.2,16.84,16.84,0,0,1-5.791,1.168c-.37,0-.422.241-.421.545q.006,4.179,0,8.358c0,.445.07.516.51.517,2.7,0,5.388.074,8.075.313a10.131,10.131,0,0,1,3.366.824,75.585,75.585,0,0,1,7.723,4.236,1.865,1.865,0,0,0,1.01.293C1408.763,510.157,1411.307,510.16,1413.85,510.16Z" transform="translate(0 -385.118)"/><path class="b" d="M1546.029,83.913a11.014,11.014,0,0,1,9.09-10.835,9.716,9.716,0,0,1,7.945,2.168,21,21,0,0,1,3.094,3.017c.19.224.292.258.51.006a18.8,18.8,0,0,1,4.488-3.967,9.323,9.323,0,0,1,8.925-.5,10.665,10.665,0,0,1,6.644,8.724,10.955,10.955,0,0,1-1.554,7.2,42.981,42.981,0,0,1-8.719,10.266,89.1,89.1,0,0,1-8.7,6.9,1.965,1.965,0,0,1-1.686.534,2.075,2.075,0,0,1-.653-.313,88.642,88.642,0,0,1-8.423-6.572,56.471,56.471,0,0,1-6.077-6.158,26.945,26.945,0,0,1-4.074-6.324A9.787,9.787,0,0,1,1546.029,83.913Zm37.658.038c-.015-.152-.031-.3-.043-.457a7.6,7.6,0,0,0-4.857-6.821,6.35,6.35,0,0,0-6.511.636,16.885,16.885,0,0,0-2.781,2.511c-.61.671-1.157,1.4-1.826,2.016a1.745,1.745,0,0,1-2.372.1,4.554,4.554,0,0,1-.685-.667,26.559,26.559,0,0,0-3.244-3.359,6.808,6.808,0,0,0-5.658-1.735,7.86,7.86,0,0,0-5.979,10.636,18.217,18.217,0,0,0,1.908,3.315,41.829,41.829,0,0,0,6.233,6.944,91.694,91.694,0,0,0,8.077,6.578.677.677,0,0,0,.96-.02,91.585,91.585,0,0,0,7.654-6.188,38.819,38.819,0,0,0,7.892-9.316A8.787,8.787,0,0,0,1583.687,83.951Z" transform="translate(-151.073)"/></g></svg>