<svg xmlns="http://www.w3.org/2000/svg" width="59.591" height="59.591" viewBox="0 0 59.591 59.591"><defs><style>.a{fill:#71c7e5;}.b{fill:#f4ce30;}</style></defs><g transform="translate(0 20.252)"><path class="a" d="M40.271,190.876a1.164,1.164,0,0,0-1.164,1.164v8.031a5.826,5.826,0,0,1-5.819,5.819H20.721a1.164,1.164,0,0,0-1.164,1.163l0,2.314-2.778-2.778a1.164,1.164,0,0,0-1.067-.7H8.147a5.826,5.826,0,0,1-5.819-5.819V182.147a5.826,5.826,0,0,1,5.819-5.819H19.9a1.164,1.164,0,0,0,0-2.328H8.147A8.157,8.157,0,0,0,0,182.147v17.924a8.157,8.157,0,0,0,8.147,8.147h6.967l4.78,4.78a1.164,1.164,0,0,0,1.987-.822l0-3.958h11.4a8.157,8.157,0,0,0,8.147-8.147V192.04A1.164,1.164,0,0,0,40.271,190.876Z" transform="translate(0 -174)"/></g><g transform="translate(22.812)"><path class="a" d="M215.862,0h-2.946a16.917,16.917,0,0,0,0,33.833h2.946a16.949,16.949,0,0,0,4.294-.55l4.351,4.349a1.164,1.164,0,0,0,1.987-.823V30.075a17.078,17.078,0,0,0,4.447-5.482,16.734,16.734,0,0,0,1.838-7.676A16.936,16.936,0,0,0,215.862,0Zm8.767,28.578a1.164,1.164,0,0,0-.464.93V34l-2.848-2.847a1.163,1.163,0,0,0-1.165-.289,14.593,14.593,0,0,1-4.291.642h-2.946a14.589,14.589,0,0,1,0-29.178h2.946a14.589,14.589,0,0,1,8.767,26.25Z" transform="translate(-196)"/></g><g transform="translate(36.6 8.155)"><path class="b" d="M324.305,74.644a4.939,4.939,0,0,0-4.569-4.569,4.89,4.89,0,0,0-3.709,1.313,4.945,4.945,0,0,0-1.566,3.6,1.164,1.164,0,1,0,2.328,0,2.6,2.6,0,0,1,2.787-2.593,2.6,2.6,0,0,1,.385,5.13,2.2,2.2,0,0,0-1.735,2.159v2.8a1.164,1.164,0,1,0,2.328,0v-2.7A4.9,4.9,0,0,0,324.305,74.644Z" transform="translate(-314.462 -70.063)"/></g><g transform="translate(40.364 24.015)"><path class="a" d="M348.787,206.671a1.165,1.165,0,1,0,.341.823A1.173,1.173,0,0,0,348.787,206.671Z" transform="translate(-346.8 -206.33)"/></g><g transform="translate(6.285 36.081)"><path class="a" d="M79.722,310H55.164a1.164,1.164,0,1,0,0,2.328H79.722a1.164,1.164,0,1,0,0-2.328Z" transform="translate(-54 -310)"/></g><g transform="translate(30.843 42.598)"><path class="a" d="M266.987,366.341a1.163,1.163,0,1,0,.341.823A1.172,1.172,0,0,0,266.987,366.341Z" transform="translate(-265 -366)"/></g><g transform="translate(6.285 42.598)"><path class="a" d="M75.144,366H55.164a1.164,1.164,0,1,0,0,2.328h19.98a1.164,1.164,0,1,0,0-2.328Z" transform="translate(-54 -366)"/></g><g transform="translate(6.285 29.563)"><path class="a" d="M72.157,254H55.164a1.164,1.164,0,1,0,0,2.328H72.157a1.164,1.164,0,1,0,0-2.328Z" transform="translate(-54 -254)"/></g></svg>