<svg xmlns="http://www.w3.org/2000/svg" width="19" height="18.977" viewBox="0 0 19 18.977">
  <path id="Path_3575" data-name="Path 3575" d="M284.438,446.44l-1.5-1.5c-.458-.461-.924-.928-1.375-1.379l-.859-.861-.158-.159.133-.18a8.772,8.772,0,0,0,1.548-3.352,8.239,8.239,0,0,0,.04-3.316,8.266,8.266,0,0,0-8.223-6.842,8.275,8.275,0,0,0-5.9,2.4,8.4,8.4,0,0,0-2.455,5.412,8.368,8.368,0,0,0,8.371,8.924,8.669,8.669,0,0,0,5.145-1.752l.18-.132.158.158.863.86q.634.633,1.27,1.265l1.606,1.606a.8.8,0,0,0,1.138,0l.018-.018A.805.805,0,0,0,284.438,446.44Zm-10.406-2.475h-.075a6.568,6.568,0,0,1-4.706-2.006,6.75,6.75,0,0,1,4.84-11.5h0a6.626,6.626,0,0,1,4.722,1.954,6.855,6.855,0,0,1,1.989,4.9A6.733,6.733,0,0,1,274.031,443.965Z" transform="translate(-265.673 -428.854)" fill="#71c7e5"/>
</svg>
