<svg xmlns="http://www.w3.org/2000/svg" width="26" height="26" viewBox="0 0 26 26">
  <g id="Group_5497" data-name="Group 5497" transform="translate(-170 -441.392)">
    <circle id="Ellipse_1317" data-name="Ellipse 1317" cx="13" cy="13" r="13" transform="translate(170 441.392)" fill="#F1CB30"/>
    <g id="Group_1788" data-name="Group 1788" transform="translate(175.498 448.698)">
      <path id="Path_3149" data-name="Path 3149" d="M914.4,345.97a.992.992,0,0,0-1.432,0l-7.5,7.737-3.277-3.38a.991.991,0,0,0-1.432,0h0a1.068,1.068,0,0,0,0,1.477l3.86,3.981a1.037,1.037,0,0,0,.12.151,1.023,1.023,0,0,0,1.458,0h0a1.033,1.033,0,0,0,.12-.151l8.087-8.338A1.068,1.068,0,0,0,914.4,345.97Z" transform="translate(-900.459 -345.664)" fill="#fff" stroke="#fff" stroke-miterlimit="10" stroke-width="1"/>
    </g>
  </g>
</svg>
