<svg xmlns="http://www.w3.org/2000/svg" width="61" height="60.182" viewBox="0 0 61 60.182"><defs><style>.a{fill:#71c7e5;}.b{fill:#f4ce30;}</style></defs><g transform="translate(-41.25 -167.244)"><path class="a" d="M41.25,280.846q5.7-7.055,11.4-14.11a1.258,1.258,0,0,1,1.955-.322q3.09,1.96,6.176,3.927a2.483,2.483,0,0,0,.7.312c2.046.552,4.092,1.1,6.134,1.668a1.509,1.509,0,0,0,.87-.013c1.9-.558,3.806-1.1,5.707-1.653a4.483,4.483,0,0,1,1.287-.183c2.521.009,5.042,0,7.563.01a1.735,1.735,0,0,0,1-.285c1.949-1.259,3.91-2.5,5.867-3.748a1.277,1.277,0,0,1,2.04.333q4.925,6.385,9.845,12.773a1.274,1.274,0,0,1-.205,2.1q-2.6,2.265-5.229,4.507a2.347,2.347,0,0,0-.6.8q-1.687,3.546-3.4,7.079a1.057,1.057,0,0,0-.009,1.007,4.174,4.174,0,0,1-3.438,6.036c-.372.038-.38.213-.421.486a4.04,4.04,0,0,1-3.334,3.706c-.785.155-.949.464-1.076,1.155a4.093,4.093,0,0,1-3.668,3.228c-.345.03-.457.117-.5.47a4.106,4.106,0,0,1-3.134,3.7,3.867,3.867,0,0,1-3.733-.819c-.485-.425-.7-.311-1.088.076a4.179,4.179,0,0,1-5.847.355,3.847,3.847,0,0,1-1.37-2.307c-.068-.368-.214-.425-.547-.424a4.194,4.194,0,0,1-4.378-3.764c-.059-.413-.19-.586-.654-.62a4.074,4.074,0,0,1-3.62-3.982c0-.57-.089-.823-.72-.993a4.168,4.168,0,0,1-2.235-6.536.575.575,0,0,0-.007-.821c-1.622-2.155-3.189-4.353-4.843-6.483A20.194,20.194,0,0,0,45,285.051c-1.007-.9-2.047-1.757-3.063-2.645a9.914,9.914,0,0,1-.685-.726Zm21.083,14.285a4.139,4.139,0,0,1,4.395,3.881c.028.356.167.4.468.428a4.178,4.178,0,0,1,3.795,4.674c-.048.394.031.484.4.584a4.2,4.2,0,0,1,2.928,5.366c-.234.744-.107,1.028.606,1.355a1.835,1.835,0,0,0,2.1-2.926c-.9-.951-1.839-1.866-2.759-2.8a1.241,1.241,0,0,1-.43-1.17,1.085,1.085,0,0,1,.768-.9,1.3,1.3,0,0,1,1.362.368q1.307,1.345,2.624,2.679a1.842,1.842,0,1,0,2.607-2.595c-1.581-1.618-3.187-3.213-4.779-4.821a3.749,3.749,0,0,1-.466-.538,1.143,1.143,0,0,1-.044-1.239,1.084,1.084,0,0,1,1.03-.581,1.4,1.4,0,0,1,1.034.5q2.375,2.424,4.761,4.838a1.977,1.977,0,0,0,1.963.72,1.838,1.838,0,0,0,.81-3.147c-2.41-2.446-4.837-4.875-7.255-7.313a6.253,6.253,0,0,1-.554-.621,1.107,1.107,0,0,1-.012-1.384,1.151,1.151,0,0,1,1.263-.459,1.517,1.517,0,0,1,.773.527q3.7,3.75,7.409,7.5a1.847,1.847,0,1,0,2.6-2.6q-6.881-6.888-13.763-13.774a1.173,1.173,0,0,0-.835-.358c-1.463-.085-2.926-.186-4.386-.316a.582.582,0,0,0-.652.358q-1.354,2.412-2.736,4.809a4.152,4.152,0,0,1-4.443,2.177,4.3,4.3,0,0,1-3.494-4.49,6.588,6.588,0,0,1,.973-2.527q1.946-3.444,3.9-6.884c.148-.26.3-.482-.153-.6-.9-.231-1.8-.487-2.7-.728a.578.578,0,0,0-.674.215q-5.214,6.382-10.456,12.741a.572.572,0,0,0-.017.859q1.99,2.636,3.937,5.3c.266.366.439.4.83.137a4.157,4.157,0,0,1,6.3,2.046C61.566,295.02,61.791,295.318,62.333,295.131Zm-.5-10.993a1.78,1.78,0,0,0,1.75,1.851,1.973,1.973,0,0,0,1.856-1.245c1.007-1.8,2.044-3.582,3.038-5.387a1.381,1.381,0,0,1,1.454-.788c2,.144,3.993.265,5.99.4a2.022,2.022,0,0,1,1.354.643Q83.55,285.92,89.852,292.2c.5.5.507.5.824-.157.873-1.824,1.722-3.659,2.629-5.466a1.053,1.053,0,0,0-.152-1.316Q88.416,279.3,83.73,273.3a.994.994,0,0,0-.883-.45c-2.421.019-4.842.008-7.262.011a2.173,2.173,0,0,0-.588.053q-4.054,1.16-8.1,2.335a.768.768,0,0,0-.514.362q-2.155,3.837-4.325,7.667A1.561,1.561,0,0,0,61.831,284.138Zm-3.1-12.107c-.01-.235-.209-.281-.348-.37-1.319-.844-2.652-1.669-3.958-2.534-.358-.237-.516-.158-.759.149-1.257,1.584-2.542,3.146-3.814,4.719q-2.711,3.354-5.42,6.71c-.225.277-.294.451.033.723q1.715,1.426,3.378,2.914c.362.325.559.327.878-.064q4.867-5.971,9.765-11.917C58.57,272.255,58.647,272.14,58.727,272.031Zm40.612,8.288c-.054-.073-.123-.167-.194-.259q-4.148-5.393-8.29-10.792c-.232-.3-.4-.337-.711-.132q-1.992,1.3-4.013,2.548c-.338.21-.353.359-.1.676q4.463,5.638,8.891,11.3c.219.281.341.279.6.055,1.191-1.045,2.4-2.07,3.6-3.1C99.207,280.542,99.328,280.495,99.34,280.319ZM64.363,299.253A1.811,1.811,0,0,0,61.3,298.01q-1.478,1.425-2.9,2.9a1.823,1.823,0,0,0,.02,2.527,1.787,1.787,0,0,0,2.522.064c1-.958,1.973-1.954,2.947-2.943A1.8,1.8,0,0,0,64.363,299.253Zm-2.172,7.115a1.705,1.705,0,0,0,1,1.733,1.723,1.723,0,0,0,2.042-.307q1.455-1.4,2.86-2.858a1.819,1.819,0,1,0-2.584-2.561c-.952.926-1.884,1.872-2.819,2.816A1.593,1.593,0,0,0,62.191,306.368Zm9.916,2.523a1.727,1.727,0,0,0-1-1.77,1.705,1.705,0,0,0-1.991.277,17.491,17.491,0,0,0-1.639,1.635,1.779,1.779,0,0,0-.238,2.052,1.813,1.813,0,0,0,1.771.965C70.092,311.98,72.089,309.883,72.107,308.891ZM57.292,294.04a1.578,1.578,0,0,0-1.118.5c-.509.5-1.019,1-1.51,1.511a1.784,1.784,0,0,0-.025,2.516,1.833,1.833,0,0,0,2.519.127,19.3,19.3,0,0,0,1.634-1.637,1.818,1.818,0,0,0-1.5-3.019Z" transform="translate(0 -87.041)"/><path class="b" d="M288.3,167.244c.272.3.64.515.706.971a1.212,1.212,0,0,1-.751,1.335,1.2,1.2,0,0,1-1.286-1.954c.12-.123.252-.235.378-.353Z" transform="translate(-216.082)"/><path class="b" d="M165.276,195.385a1.44,1.44,0,0,1,.939.442q4,4,7.989,7.994a1.2,1.2,0,0,1,.085,1.8,1.22,1.22,0,0,1-1.8-.113q-3.98-3.969-7.951-7.947a1.2,1.2,0,0,1-.377-1.392A1.251,1.251,0,0,1,165.276,195.385Z" transform="translate(-108.158 -24.781)"/><path class="b" d="M341.942,206.019a1.182,1.182,0,0,1-1.079-1.749,2.072,2.072,0,0,1,.364-.466q3.907-3.916,7.82-7.826a1.351,1.351,0,0,1,1.147-.516,1.2,1.2,0,0,1,1.015.809,1.112,1.112,0,0,1-.267,1.207c-.4.436-.834.848-1.254,1.269q-3.364,3.365-6.729,6.73A1.388,1.388,0,0,1,341.942,206.019Z" transform="translate(-263.713 -24.841)"/><path class="b" d="M286.659,211.788c0-1.051,0-2.1,0-3.152a1.2,1.2,0,1,1,2.381,0q.007,3.212,0,6.424c0,.858-.486,1.393-1.22,1.374-.713-.019-1.157-.537-1.161-1.374C286.655,213.969,286.659,212.879,286.659,211.788Z" transform="translate(-216.109 -35.255)"/></g></svg>